<?xml version="1.0"?>
<svg width="14" height="14" xmlns="http://www.w3.org/2000/svg" xmlns:svg="http://www.w3.org/2000/svg">
 <g class="layer">
  <title>Layer 1</title>
  <path d="m8.19,12c-0.57,0 -1.03,-0.46 -1.03,-1.03c0,-0.57 0.46,-1.03 1.03,-1.03c0.56,0 1.03,0.46 1.03,1.03c0,0.57 -0.47,1.03 -1.03,1.03zm1.36,-8.43c-0.09,0.69 -0.73,4.07 -0.94,5.18c-0.04,0.21 -0.22,0.36 -0.43,0.36l-0.01,0c-0.21,0 -0.4,-0.16 -0.44,-0.37c-0.21,-1.13 -0.85,-4.51 -0.94,-5.19c-0.1,-0.82 0.54,-1.55 1.37,-1.55c0.84,0 1.49,0.74 1.39,1.57z" id="svg_1" transform="rotate(180 7.78017 7)"/>
 </g>
</svg>